<svg width="259.78001708984374px" height="131.63999023437498px" xmlns="http://www.w3.org/2000/svg" viewBox="120.10999145507813 9.180004882812511 259.78001708984374 131.63999023437498" style="background: rgba(0, 0, 0, 0) none repeat scroll 0% 0%;" preserveAspectRatio="xMidYMid"><defs><filter id="editing-metal-beveled"><feGaussianBlur stdDeviation="4" in="SourceAlpha" result="blur"></feGaussianBlur><feSpecularLighting surfaceScale="5" specularConstant="0.8" specularExponent="7.5" lighting-color="#000000" in="blur" result="specular"><fePointLight x="-250" y="-50" z="300"></fePointLight></feSpecularLighting><feComposite operator="in" in="specular" in2="SourceAlpha" result="comp"></feComposite><feComposite in="SourceGraphic" in2="comp" operator="arithmetic" k1="0" k2="1" k3="1" k4="0"></feComposite></filter></defs><g filter="url(#editing-metal-beveled)"><g transform="translate(166.43646329641342, 102.03999900817871)"><path d="M35.07-31.17L35.07-31.17L34.94-29.12L34.94-29.12Q34.94-24.96 39.42-24.96L39.42-24.96L39.42-24.96Q43.14-24.96 46.91-27.52L46.91-27.52L46.91-27.52Q50.69-30.08 50.69-32.70L50.69-32.70L50.69-32.70Q50.69-35.33 47.62-37.12L47.62-37.12L47.62-37.12Q45.57-38.34 41.22-38.34L41.22-38.34L41.22-38.34Q34.75-38.34 26.78-35.26L26.78-35.26L26.78-35.26Q18.82-32.19 11.84-25.41L11.84-25.41L11.84-25.41Q2.69-16.45 2.69-8.96L2.69-8.96L2.69-8.96Q2.69-4.54 6.05-1.86L6.05-1.86L6.05-1.86Q9.41 0.83 14.85 0.83L14.85 0.83L14.85 0.83Q22.40 0.83 32.38-4.86L32.38-4.86L32.38-4.86Q40.70-9.54 44.86-14.78L44.86-14.78L46.72-17.54L46.72-17.54Q45.57-17.54 37.18-16.86L37.18-16.86L37.18-16.86Q28.80-16.19 27.58-15.90L27.58-15.90L27.58-15.90Q26.37-15.62 25.60-15.62L25.60-15.62L25.60-15.62Q23.49-15.62 23.49-16.64L23.49-16.64L23.49-16.64Q23.49-18.24 28.35-19.30L28.35-19.30L28.35-19.30Q33.22-20.35 44.80-20.35L44.80-20.35L44.80-20.35Q56.38-20.35 60.10-19.46L60.10-19.46L60.10-19.46Q60.67-19.33 60.67-19.14L60.67-19.14L60.67-19.14Q60.67-18.43 56.26-18.11L56.26-18.11L56.26-18.11Q50.75-17.66 50.62-17.66L50.62-17.66L50.62-17.66Q44.10-9.09 33.73 8.83L33.73 8.83L33.73 8.83Q33.15 9.86 32.61 9.86L32.61 9.86L32.61 9.86Q32.06 9.86 32.06 9.02L32.06 9.02L32.06 9.02Q32.06 6.78 35.65 0.38L35.65 0.38L40.13-8L40.13-8Q36.03-4.48 29.70-1.41L29.70-1.41L29.70-1.41Q21.44 2.50 14.11 2.50L14.11 2.50L14.11 2.50Q6.78 2.50 2.91-0.67L2.91-0.67L2.91-0.67Q-0.96-3.84-0.96-9.15L-0.96-9.15L-0.96-9.15Q-0.96-18.94 10.88-29.06L10.88-29.06L10.88-29.06Q16.83-34.18 25.28-37.57L25.28-37.57L25.28-37.57Q33.73-40.96 40.10-40.96L40.10-40.96L40.10-40.96Q46.46-40.96 49.86-38.46L49.86-38.46L49.86-38.46Q52.48-36.42 52.48-33.86L52.48-33.86L52.48-33.86Q52.48-30.21 47.97-26.85L47.97-26.85L47.97-26.85Q43.46-23.49 39.04-23.49L39.04-23.49L39.04-23.49Q33.09-23.49 33.09-30.34L33.09-30.34L33.09-30.34Q33.09-32.96 34.18-32.96L34.18-32.96L34.18-32.96Q35.07-32.96 35.07-31.17ZM55.49-3.20L55.49-3.20L55.49-3.20Q55.49-1.28 57.60-1.28L57.60-1.28L57.60-1.28Q59.71-1.28 63.04-3.52L63.04-3.52L63.04-3.52Q66.37-5.76 69.50-9.60L69.50-9.60L69.50-9.60Q70.27-10.62 70.72-10.62L70.72-10.62L70.72-10.62Q71.17-10.62 71.17-10.24L71.17-10.24L71.17-10.24Q71.17-9.86 68.54-6.91L68.54-6.91L68.54-6.91Q62.14 0.13 57.86 0.13L57.86 0.13L57.86 0.13Q55.74 0.13 54.27-0.86L54.27-0.86L54.27-0.86Q52.80-1.86 52.80-3.94L52.80-3.94L52.80-3.94Q52.80-6.02 53.89-8.77L53.89-8.77L53.89-8.77Q55.74-13.12 59.84-19.71L59.84-19.71L59.84-19.71Q67.33-31.87 70.46-31.87L70.46-31.87L70.46-31.87Q71.10-31.87 71.78-31.39L71.78-31.39L71.78-31.39Q72.45-30.91 72.51-30.34L72.51-30.34L72.51-30.34Q71.04-28.35 66.85-22.72L66.85-22.72L66.85-22.72Q62.66-17.09 61.06-14.62L61.06-14.62L61.06-14.62Q59.46-12.16 58.66-10.94L58.66-10.94L58.66-10.94Q57.86-9.73 57.47-9.06L57.47-9.06L57.47-9.06Q57.09-8.38 56.58-7.30L56.58-7.30L56.58-7.30Q55.49-5.12 55.49-3.20ZM64.96 7.42L64.96 7.42L64.96 7.42Q68.03 11.26 70.27 11.26L70.27 11.26L70.27 11.26Q73.92 11.26 78.14 5.44L78.14 5.44L78.14 5.44Q81.22 1.15 84.16-5.38L84.16-5.38L86.59-11.26L77.18-3.90L77.18-3.90Q72.83-0.51 70.21-0.51L70.21-0.51L70.21-0.51Q68.80-0.51 67.97-1.47L67.97-1.47L67.97-1.47Q67.14-2.43 67.14-3.65L67.14-3.65L67.14-3.65Q67.14-6.40 71.87-12.70L71.87-12.70L71.87-12.70Q76.61-19.01 78.78-19.01L78.78-19.01L78.78-19.01Q80.96-19.01 80.96-17.54L80.96-17.54L80.96-17.54Q80.96-16.96 75.30-10.91L75.30-10.91L75.30-10.91Q69.63-4.86 69.63-2.75L69.63-2.75L69.63-2.75Q69.63-1.92 70.72-1.92L70.72-1.92L70.72-1.92Q72.77-1.92 78.94-6.72L78.94-6.72L78.94-6.72Q85.12-11.52 88.26-14.66L88.26-14.66L88.26-14.66Q88.96-15.49 90.24-17.15L90.24-17.15L90.24-17.15Q91.46-18.56 92.93-18.56L92.93-18.56L92.93-18.56Q94.40-18.56 94.40-17.15L94.40-17.15L94.40-17.15Q94.40-16.90 91.52-12.61L91.52-12.61L91.52-12.61Q88.64-8.32 88.51-8.06L88.51-8.06L88.51-8.06Q86.53-4.22 82.43 3.14L82.43 3.14L82.43 3.14Q76.22 13.12 70.02 13.12L70.02 13.12L70.02 13.12Q67.97 13.12 66.43 11.36L66.43 11.36L66.43 11.36Q64.90 9.60 64.96 7.42ZM97.09 0.83L97.09 0.83L97.09 0.83Q96.38 0.83 95.81 0.64L95.81 0.64L95.81 0.64Q91.71-0.51 91.71-3.97L91.71-3.97L91.71-3.97Q91.71-8.45 97.34-14.34L97.34-14.34L97.34-14.34Q102.98-20.22 107.46-20.22L107.46-20.22L107.46-20.22Q108.93-20.22 109.86-19.42L109.86-19.42L109.86-19.42Q110.78-18.62 110.78-17.25L110.78-17.25L110.78-17.25Q110.78-15.87 109.95-14.37L109.95-14.37L109.95-14.37Q109.12-12.86 107.46-12.86L107.46-12.86L107.46-12.86Q105.79-12.86 105.79-13.89L105.79-13.89L105.79-13.89Q105.79-14.59 106.66-16.03L106.66-16.03L106.66-16.03Q107.52-17.47 107.52-17.57L107.52-17.57L107.52-17.57Q107.52-17.66 107.33-17.66L107.33-17.66L107.33-17.66Q105.54-17.47 102.43-15.10L102.43-15.10L102.43-15.10Q99.33-12.74 98.18-11.14L98.18-11.14L95.68-7.49L95.68-7.49Q95.04-6.46 94.75-5.06L94.75-5.06L94.75-5.06Q94.46-3.65 94.46-2.94L94.46-2.94L94.46-2.94Q94.46-2.24 95.26-1.34L95.26-1.34L95.26-1.34Q96.06-0.45 97.54-0.45L97.54-0.45L97.54-0.45Q100.74-0.45 105.47-4.19L105.47-4.19L105.47-4.19Q110.21-7.94 112.77-11.33L112.77-11.33L112.77-11.33Q113.09-11.71 113.54-11.71L113.54-11.71L113.54-11.71Q113.98-11.71 113.98-11.46L113.98-11.46L113.98-11.46Q113.98-11.20 113.66-10.82L113.66-10.82L113.66-10.82Q110.14-6.14 105.25-2.66L105.25-2.66L105.25-2.66Q100.35 0.83 97.09 0.83ZM124.22-26.11L124.22-26.11Q125.18-26.11 126.05-25.50L126.05-25.50L126.05-25.50Q126.91-24.90 126.91-24.06L126.91-24.06L126.91-24.06Q126.91-23.23 126.11-22.62L126.11-22.62L126.11-22.62Q125.31-22.02 124.35-22.02L124.35-22.02L124.35-22.02Q123.39-22.02 122.59-22.72L122.59-22.72L122.59-22.72Q121.79-23.42 121.79-24.32L121.79-24.32L121.79-24.32Q121.79-26.11 124.22-26.11L124.22-26.11ZM112.64 0.70L112.64 0.70L112.64 0.70Q109.38 0.70 109.38-3.52L109.38-3.52L109.38-3.52Q109.38-6.98 113.15-13.09L113.15-13.09L113.15-13.09Q116.93-19.20 119.23-19.26L119.23-19.26L119.23-19.26Q119.87-19.26 120.67-18.75L120.67-18.75L120.67-18.75Q121.47-18.24 121.47-17.73L121.47-17.73L121.47-17.73Q121.15-17.28 120.70-16.74L120.70-16.74L120.70-16.74Q120.26-16.19 119.74-15.55L119.74-15.55L119.74-15.55Q119.23-14.91 118.34-13.73L118.34-13.73L118.34-13.73Q117.44-12.54 116.61-11.46L116.61-11.46L116.61-11.46Q111.81-5.25 111.81-2.91L111.81-2.91L111.81-2.91Q111.81-0.58 113.41-0.58L113.41-0.58L113.41-0.58Q114.75-0.58 117.06-2.05L117.06-2.05L117.06-2.05Q122.43-5.38 125.57-9.34L125.57-9.34L125.57-9.34Q126.72-10.82 127.14-10.82L127.14-10.82L127.14-10.82Q127.55-10.82 127.55-10.30L127.55-10.30L127.55-10.30Q127.55-9.79 126.08-8.26L126.08-8.26L126.08-8.26Q124.61-6.72 123.74-5.82L123.74-5.82L123.74-5.82Q122.88-4.93 122.56-4.64L122.56-4.64L122.56-4.64Q122.24-4.35 121.38-3.55L121.38-3.55L121.38-3.55Q120.51-2.75 120.06-2.43L120.06-2.43L120.06-2.43Q119.62-2.11 118.78-1.47L118.78-1.47L118.78-1.47Q117.95-0.83 117.31-0.54L117.31-0.54L117.31-0.54Q116.67-0.26 115.84 0.13L115.84 0.13L115.84 0.13Q114.50 0.70 112.64 0.70ZM135.10-20.22L135.10-20.22L135.10-20.22Q136.83-20.22 136.83-18.88L136.83-18.88L136.83-18.88Q136.83-18.50 136.64-18.11L136.64-18.11L136.64-18.11Q130.88-10.11 129.73-6.02L129.73-6.02L129.73-6.02Q144.64-20.93 147.84-20.93L147.84-20.93L147.84-20.93Q148.16-20.99 148.42-20.99L148.42-20.99L148.42-20.99Q150.21-20.99 150.21-19.39L150.21-19.39L150.21-19.39Q150.21-19.07 150.08-18.75L150.08-18.75L150.08-18.75Q149.95-18.43 147.52-15.30L147.52-15.30L147.52-15.30Q144.70-11.97 142.75-8.90L142.75-8.90L142.75-8.90Q140.80-5.82 140.80-3.78L140.80-3.78L140.80-3.78Q140.80-1.73 141.70-1.73L141.70-1.73L141.70-1.73Q144.51-1.73 151.49-9.47L151.49-9.47L151.49-9.47Q151.62-9.60 151.94-10.05L151.94-10.05L151.94-10.05Q152.90-11.20 153.09-11.20L153.09-11.20L153.09-11.20Q153.28-11.20 153.28-10.56L153.28-10.56L153.28-10.56Q153.28-9.92 152.38-8.90L152.38-8.90L152.38-8.90Q144.45 0.13 141.12 0.13L141.12 0.13L141.12 0.13Q137.98 0.13 137.98-3.33L137.98-3.33L137.98-3.33Q137.98-6.78 140.54-11.26L140.54-11.26L144.64-17.92L144.64-17.92Q140.29-14.72 136.90-10.91L136.90-10.91L136.90-10.91Q133.50-7.10 130.72-3.52L130.72-3.52L130.72-3.52Q127.94 0.06 127.49 0.06L127.49 0.06L127.49 0.06Q126.53 0.06 125.98-0.74L125.98-0.74L125.98-0.74Q125.44-1.54 125.44-2.72L125.44-2.72L125.44-2.72Q125.44-3.90 126.27-5.89L126.27-5.89L126.27-5.89Q127.10-7.87 128.38-10.69L128.38-10.69L124.54-6.66L124.54-6.66Q123.14-5.25 122.78-5.25L122.78-5.25L122.78-5.25Q122.43-5.25 122.43-5.66L122.43-5.66L122.43-5.66Q122.43-6.08 122.94-6.59L122.94-6.59L122.94-6.59Q125.31-8.96 127.04-11.14L127.04-11.14L127.04-11.14Q128.70-13.31 133.89-19.46L133.89-19.46L133.89-19.46Q134.46-20.22 135.10-20.22ZM153.86 0.83L153.86 0.83L153.86 0.83Q153.15 0.83 152.58 0.64L152.58 0.64L152.58 0.64Q148.48-0.51 148.48-3.97L148.48-3.97L148.48-3.97Q148.48-8.45 154.11-14.34L154.11-14.34L154.11-14.34Q159.74-20.22 164.22-20.22L164.22-20.22L164.22-20.22Q165.70-20.22 166.62-19.42L166.62-19.42L166.62-19.42Q167.55-18.62 167.55-17.47L167.55-17.47L167.55-17.47Q167.55-13.89 162.14-10.62L162.14-10.62L162.14-10.62Q156.74-7.36 153.34-7.36L153.34-7.36L153.34-7.36Q152.83-7.36 152.45-7.49L152.45-7.49L152.45-7.49Q151.49-5.76 151.49-3.84L151.49-3.84L151.49-3.84Q151.49-0.51 154.66-0.51L154.66-0.51L154.66-0.51Q157.82-0.51 162.88-4.80L162.88-4.80L162.88-4.80Q166.78-7.94 169.54-11.46L169.54-11.46L169.54-11.46Q170.11-12.22 170.53-12.22L170.53-12.22L170.53-12.22Q170.94-12.22 170.94-11.84L170.94-11.84L170.94-11.84Q170.94-11.46 170.43-10.75L170.43-10.75L170.43-10.75Q166.98-6.21 162.11-2.69L162.11-2.69L162.11-2.69Q157.25 0.83 153.86 0.83ZM165.95-17.60L165.95-17.60L165.95-17.60Q165.95-18.37 164.32-18.37L164.32-18.37L164.32-18.37Q162.69-18.37 159.68-15.87L159.68-15.87L159.68-15.87Q155.65-12.54 153.41-8.90L153.41-8.90L153.41-8.90Q153.79-8.77 154.24-8.77L154.24-8.77L154.24-8.77Q156.67-8.77 160.74-11.36L160.74-11.36L160.74-11.36Q164.80-13.95 165.82-17.02L165.82-17.02L165.82-17.02Q165.95-17.34 165.95-17.60Z" fill="#542f62"></path></g></g><style>text {
  font-size: 64px;
  font-family: Arial Black;
  dominant-baseline: central;
  text-anchor: middle;
}</style></svg>